# xmcd
#
# Track frame offsets:
#	150
#	5915
#	82916
#	111262
#	130530
#	175184
#	182971
#	222793
#	227329
#	286409
#
# Disc length: 4097 seconds
#
# Revision: 7
# Processed by: cddbd v1.5.2PL0 Copyright (c) Steve Scherf et al.
# Submitted via: audiograbber 1.83.01
#
DISCID=800fff0a
DTITLE=Esbjorn Svensson Trio - Leucocyte
DYEAR=2008
DGENRE=Jazz
TTITLE0=Decade
TTITLE1=Premonition - I. Earth
TTITLE2=Premonition - Ii. Contorted
TTITLE3=Jazz
TTITLE4=Still
TTITLE5=Ajar
TTITLE6=Leucocyte - I. Ab Initio
TTITLE7=Leucocyte - Ii. Ad Interim
TTITLE8=Leucocyte - Iii. Ad Mortem
TTITLE9=Leucocyte - Iv. Ad Infinitum
EXTD=YEAR: 2008
EXTT0=
EXTT1=
EXTT2=
EXTT3=
EXTT4=
EXTT5=
EXTT6=
EXTT7=
EXTT8=
EXTT9=
PLAYORDER=
